<svg width="32" height="32" viewBox="0 0 32 32" fill="none" xmlns="http://www.w3.org/2000/svg">
<path d="M20.4169 5.3335C20.3538 5.6575 20.3224 5.98685 20.3231 6.31691C20.3231 9.27823 22.7272 11.6789 25.6929 11.6789C26.0194 11.6773 26.3452 11.6459 26.666 11.5852V22.2154C26.666 26.6876 24.028 29.3335 19.5493 29.3335H9.7945C5.30402 29.3335 2.66602 26.6876 2.66602 22.2154V12.475C2.66602 8.00276 5.30402 5.3335 9.7945 5.3335H20.4169ZM20.4216 13.3356C20.1608 13.3731 19.9265 13.5146 19.772 13.7276L16.5595 17.8603L12.9015 14.9803C12.6926 14.8176 12.427 14.7458 12.1644 14.781C11.9019 14.8163 11.6647 14.9556 11.5063 15.1676L7.56685 20.2486C7.42838 20.4212 7.35383 20.6363 7.35581 20.8574L7.35927 21.0045C7.39746 21.3912 7.66266 21.7253 8.04252 21.8452C8.46986 21.9801 8.93452 21.8099 9.1731 21.4311L12.4677 17.1696L16.1257 20.0379C16.3338 20.2056 16.6012 20.2817 16.8665 20.2486C17.1319 20.2154 17.3723 20.076 17.5326 19.8623L21.3431 14.9452V14.9218C21.6693 14.4834 21.5861 13.8654 21.1555 13.5286C20.9471 13.3677 20.6823 13.2981 20.4216 13.3356Z" fill="#cdcdcd"/>
<path opacity="0.4" d="M25.9993 9.33342C27.8403 9.33342 29.3327 7.84103 29.3327 6.00008C29.3327 4.15913 27.8403 2.66675 25.9993 2.66675C24.1584 2.66675 22.666 4.15913 22.666 6.00008C22.666 7.84103 24.1584 9.33342 25.9993 9.33342Z" fill="#0C7FDA"/>
</svg>
