<svg width="18" height="18" viewBox="0 0 18 18" fill="none" xmlns="http://www.w3.org/2000/svg">
<g id="Icon/attachment">
<path id="Vector" d="M13.9297 2.9461C13.0719 2.08828 11.6797 2.08828 10.8219 2.9461L4.35313 9.41484C2.87305 10.8949 2.87305 13.2926 4.35313 14.7727C5.8332 16.2527 8.23086 16.2527 9.71094 14.7727L15.0547 9.42891C15.4379 9.0457 16.0637 9.0457 16.4469 9.42891C16.8301 9.81211 16.8301 10.4379 16.4469 10.8211L11.1031 16.1648C8.85312 18.4148 5.21094 18.4148 2.96094 16.1648C0.710938 13.9148 0.710938 10.2727 2.96094 8.02266L9.42969 1.55391C11.0574 -0.0738266 13.6941 -0.0738266 15.3219 1.55391C16.9496 3.18164 16.9496 5.81836 15.3219 7.44609L9.13437 13.6336C8.12891 14.6391 6.49766 14.6391 5.49219 13.6336C4.48672 12.6281 4.48672 10.9969 5.49219 9.99141L10.5547 4.92891C10.9379 4.5457 11.5637 4.5457 11.9469 4.92891C12.3301 5.31211 12.3301 5.93789 11.9469 6.32109L6.88438 11.3836C6.64883 11.6191 6.64883 12.0059 6.88438 12.2414C7.11992 12.477 7.50664 12.477 7.74219 12.2414L13.9297 6.05391C14.7875 5.19609 14.7875 3.80391 13.9297 2.9461Z" fill="rgb(112,2,112)"/>
</g>
</svg>
