<svg width="27" height="27" viewBox="0 0 27 27" fill="none" xmlns="http://www.w3.org/2000/svg">
<path d="M19.8584 0.316271C21.7764 0.196395 23.6678 0.862372 25.093 2.16769C26.3984 3.59288 27.0643 5.48426 26.9578 7.41559V19.8561C27.0777 21.7874 26.3984 23.6788 25.1064 25.104C23.6812 26.4093 21.7764 27.0753 19.8584 26.9554H7.41785C5.4865 27.0753 3.5951 26.4093 2.1699 25.104C0.864574 23.6788 0.198591 21.7874 0.318468 19.8561V7.41559C0.198591 5.48426 0.864574 3.59288 2.1699 2.16769C3.5951 0.862372 5.4865 0.196395 7.41785 0.316271H19.8584ZM19.5121 6.40331C18.6863 5.57749 17.3543 5.57749 16.5285 6.40331L15.6361 7.30904C15.5029 7.44223 15.5029 7.66866 15.6361 7.80186C15.6361 7.80186 15.6622 7.82784 15.7088 7.8741L16.0364 8.19994C16.2259 8.3885 16.4625 8.62397 16.7 8.86076L17.5054 9.66583C17.6735 9.83465 17.785 9.94779 17.7939 9.95963C17.9404 10.1195 18.0336 10.3326 18.0336 10.5723C18.0336 11.0518 17.6473 11.4514 17.1545 11.4514C16.9281 11.4514 16.715 11.3582 16.5685 11.2117L14.3441 9.00062C14.2375 8.89406 14.051 8.89406 13.9445 9.00062L7.591 15.354C7.15145 15.7936 6.89838 16.3797 6.88506 17.0057L6.80514 20.1624C6.80514 20.3356 6.85842 20.4954 6.9783 20.6153C7.09818 20.7351 7.25801 20.8017 7.43117 20.8017H10.5613C11.2006 20.8017 11.8133 20.5487 12.2795 20.0958L21.2437 11.1051C22.0562 10.2793 22.0562 8.94734 21.2437 8.13485L19.5121 6.40331Z" fill="#ffffff" />
</svg>
