<svg width="25" height="23" viewBox="0 0 26 28" fill="none" xmlns="http://www.w3.org/2000/svg">
<path d="M9.18036 25.6979V21.6209C9.18036 20.5802 10.0302 19.7365 11.0786 19.7365H14.9108C15.4142 19.7365 15.8971 19.935 16.253 20.2884C16.609 20.6418 16.809 21.1211 16.809 21.6209V25.6979C16.8058 26.1305 16.9767 26.5466 17.2838 26.8537C17.5909 27.1607 18.0087 27.3334 18.4446 27.3334H21.0591C22.2802 27.3365 23.4523 26.8572 24.3169 26.0012C25.1814 25.1451 25.6673 23.9827 25.6673 22.7705V11.1559C25.6673 10.1767 25.2301 9.24787 24.4735 8.61964L15.5793 1.56791C14.0322 0.331497 11.8155 0.371418 10.3145 1.66272L1.62333 8.61964C0.830972 9.22935 0.357387 10.1609 0.333984 11.1559V22.7587C0.333984 25.2852 2.39716 27.3334 4.94222 27.3334H7.49704C8.40229 27.3334 9.13798 26.6084 9.14454 25.7097L9.18036 25.6979Z" fill="rgb(112,2,112)"/>
</svg>
