<svg width="18" height="18" viewBox="0 0 18 18" fill="none" xmlns="http://www.w3.org/2000/svg">
<g id="Icon/message 3" clip-path="url(#clip0_1142_2891)">
<path id="Vector" d="M5.06288 7.3125C4.44061 7.3125 3.93788 7.81523 3.93788 8.4375C3.93788 9.05977 4.44061 9.5625 5.06288 9.5625C5.68515 9.5625 6.18788 9.05977 6.18788 8.4375C6.18788 7.81523 5.68515 7.3125 5.06288 7.3125ZM9.00038 7.3125C8.37811 7.3125 7.87538 7.81523 7.87538 8.4375C7.87538 9.05977 8.37811 9.5625 9.00038 9.5625C9.62265 9.5625 10.1254 9.05977 10.1254 8.4375C10.1254 7.81523 9.62265 7.3125 9.00038 7.3125ZM12.9379 7.3125C12.3156 7.3125 11.8129 7.81523 11.8129 8.4375C11.8129 9.05977 12.3156 9.5625 12.9379 9.5625C13.5601 9.5625 14.0629 9.05977 14.0629 8.4375C14.0629 7.81523 13.5601 7.3125 12.9379 7.3125ZM9.00038 1.125C4.02929 1.125 0.000380132 4.39805 0.000380132 8.4375C0.000380132 10.1109 0.69999 11.6437 1.86015 12.8777C1.33632 14.2629 0.246474 15.4371 0.228896 15.4512C-0.00313549 15.6973 -0.0664167 16.0559 0.067177 16.3652C0.200771 16.6746 0.50663 16.875 0.84413 16.875C3.00624 16.875 4.71132 15.9715 5.73436 15.2473C6.75038 15.5672 7.84726 15.75 9.00038 15.75C13.9715 15.75 18.0004 12.477 18.0004 8.4375C18.0004 4.39805 13.9715 1.125 9.00038 1.125ZM9.00038 14.0625C8.06171 14.0625 7.13358 13.9184 6.24413 13.6371L5.44608 13.384L4.76054 13.8691C4.2578 14.2242 3.56874 14.6215 2.73905 14.8887C2.99569 14.4633 3.2453 13.9852 3.43866 13.4754L3.81132 12.4875L3.0871 11.7211C2.45077 11.0426 1.68788 9.92109 1.68788 8.4375C1.68788 5.33672 4.96796 2.8125 9.00038 2.8125C13.0328 2.8125 16.3129 5.33672 16.3129 8.4375C16.3129 11.5383 13.0328 14.0625 9.00038 14.0625Z" fill="#6F6F70"/>
</g>
<defs>
<clipPath id="clip0_1142_2891">
<rect width="18" height="18" fill="white"/>
</clipPath>
</defs>
</svg>
