<svg width="29" height="30" viewBox="0 0 29 30" fill="none" xmlns="http://www.w3.org/2000/svg">
<g id="more-vertical">
<path id="Vector" d="M14.0497 15.8437C14.6964 15.8437 15.2206 15.2981 15.2206 14.625C15.2206 13.9519 14.6964 13.4062 14.0497 13.4062C13.4031 13.4062 12.8789 13.9519 12.8789 14.625C12.8789 15.2981 13.4031 15.8437 14.0497 15.8437Z" stroke="white" stroke-width="2" stroke-linecap="round" stroke-linejoin="round"/>
<path id="Vector_2" d="M14.0497 7.3125C14.6964 7.3125 15.2206 6.76685 15.2206 6.09375C15.2206 5.42065 14.6964 4.875 14.0497 4.875C13.4031 4.875 12.8789 5.42065 12.8789 6.09375C12.8789 6.76685 13.4031 7.3125 14.0497 7.3125Z" stroke="white" stroke-width="2" stroke-linecap="round" stroke-linejoin="round"/>
<path id="Vector_3" d="M14.0497 24.375C14.6964 24.375 15.2206 23.8293 15.2206 23.1562C15.2206 22.4832 14.6964 21.9375 14.0497 21.9375C13.4031 21.9375 12.8789 22.4832 12.8789 23.1562C12.8789 23.8293 13.4031 24.375 14.0497 24.375Z" stroke="white" stroke-width="2" stroke-linecap="round" stroke-linejoin="round"/>
</g>
</svg>
