<svg width="41" height="35" viewBox="0 0 41 35" fill="none" xmlns="http://www.w3.org/2000/svg">
<path d="M20.5343 4.24365C14.8797 4.24365 10.2843 8.16657 10.2843 12.9937V17.2082C10.2843 18.0978 9.84009 19.4541 9.31051 20.2124L7.34592 22.9978C6.13301 24.7187 6.97009 26.6291 9.19092 27.2707C16.5538 29.3707 24.4976 29.3707 31.8605 27.2707C33.9276 26.6874 34.833 24.602 33.7055 22.9978L31.7409 20.2124C31.2284 19.4541 30.7843 18.0978 30.7843 17.2082V12.9937C30.7843 8.18115 26.1718 4.24365 20.5343 4.24365Z" stroke="#0A3B83" stroke-width="1.5" stroke-miterlimit="10" stroke-linecap="round"/>
<path d="M23.6939 4.6666C23.1643 4.53535 22.6176 4.43327 22.0539 4.37493C20.4139 4.19993 18.8422 4.30202 17.373 4.6666C17.8685 3.58743 19.0985 2.8291 20.5335 2.8291C21.9685 2.8291 23.1985 3.58743 23.6939 4.6666Z" stroke="#0A3B83" stroke-width="1.5" stroke-miterlimit="10" stroke-linecap="round" stroke-linejoin="round"/>
<path d="M25.6582 27.7959C25.6582 30.2021 23.352 32.1709 20.5332 32.1709C19.1324 32.1709 17.834 31.6751 16.9115 30.8876C15.989 30.1001 15.4082 28.9917 15.4082 27.7959" stroke="#0A3B83" stroke-width="1.5" stroke-miterlimit="10"/>
</svg>
