<svg width="10" height="10" viewBox="0 0 10 10" fill="#ffffff" xmlns="http://www.w3.org/2000/svg">
<g id="Icon/plus">
<path id="Vector" d="M5.60156 2.1125C5.60156 1.82211 5.33344 1.5875 5.00156 1.5875C4.66969 1.5875 4.40156 1.82211 4.40156 2.1125V4.475H1.70156C1.36969 4.475 1.10156 4.70961 1.10156 5C1.10156 5.29039 1.36969 5.525 1.70156 5.525H4.40156V7.8875C4.40156 8.17789 4.66969 8.4125 5.00156 8.4125C5.33344 8.4125 5.60156 8.17789 5.60156 7.8875V5.525H8.30156C8.63344 5.525 8.90156 5.29039 8.90156 5C8.90156 4.70961 8.63344 4.475 8.30156 4.475H5.60156V2.1125Z" fill="rgb(112,2,112)"/>
</g>
</svg>
