<svg width="30" height="30" viewBox="0 0 30 30" fill="none" xmlns="http://www.w3.org/2000/svg">
<path d="M16.147 3.0752C17.0693 3.0752 17.9045 3.58745 18.3656 4.34363C18.59 4.70953 18.7396 5.1608 18.7022 5.63646C18.6772 6.00236 18.7894 6.36825 18.9888 6.70975C19.6245 7.74645 21.033 8.13674 22.1299 7.55131C23.3638 6.84391 24.9219 7.27079 25.6323 8.47824L26.4674 9.91743C27.1904 11.1249 26.7915 12.6738 25.5451 13.369C24.4856 13.9911 24.1117 15.3693 24.7474 16.4182C24.9468 16.7475 25.1711 17.028 25.5201 17.1987C25.9564 17.4305 26.2929 17.7964 26.5297 18.1623C26.9909 18.9184 26.9535 19.8454 26.5048 20.6625L25.6323 22.1261C25.1711 22.9067 24.3111 23.3946 23.4261 23.3946C22.9899 23.3946 22.5038 23.2726 22.1049 23.0287C21.7809 22.8213 21.4069 22.7481 21.0081 22.7481C19.7741 22.7481 18.7396 23.7605 18.7022 24.9679C18.7022 26.3705 17.5555 27.4682 16.1221 27.4682H14.4269C12.9811 27.4682 11.8343 26.3705 11.8343 24.9679C11.8094 23.7605 10.7749 22.7481 9.54091 22.7481C9.12958 22.7481 8.75565 22.8213 8.44405 23.0287C8.04519 23.2726 7.54662 23.3946 7.12283 23.3946C6.2254 23.3946 5.36536 22.9067 4.90418 22.1261L4.04415 20.6625C3.58297 19.8698 3.55804 18.9184 4.01922 18.1623C4.21865 17.7964 4.59258 17.4305 5.01636 17.1987C5.36536 17.028 5.58972 16.7475 5.80161 16.4182C6.42483 15.3693 6.0509 13.9911 4.99144 13.369C3.75747 12.6738 3.35861 11.1249 4.06908 9.91743L4.90418 8.47824C5.62711 7.27079 7.17269 6.84391 8.41912 7.55131C9.50351 8.13674 10.912 7.74645 11.5477 6.70975C11.7471 6.36825 11.8593 6.00236 11.8343 5.63646C11.8094 5.1608 11.9465 4.70953 12.1833 4.34363C12.6445 3.58745 13.4796 3.09959 14.3895 3.0752H16.147ZM15.2869 11.8323C13.3301 11.8323 11.7471 13.369 11.7471 15.2839C11.7471 17.1987 13.3301 18.7233 15.2869 18.7233C17.2438 18.7233 18.7894 17.1987 18.7894 15.2839C18.7894 13.369 17.2438 11.8323 15.2869 11.8323Z" fill="rgb(112,2,112)"/>
</svg>
